<?xml version="1.0" encoding="utf-8"?>
<!-- Generator: Adobe Illustrator 16.0.0, SVG Export Plug-In . SVG Version: 6.00 Build 0)  -->
<!DOCTYPE svg PUBLIC "-//W3C//DTD SVG 1.1//EN" "http://www.w3.org/Graphics/SVG/1.1/DTD/svg11.dtd">
<svg version="1.1" id="ab_2" xmlns="http://www.w3.org/2000/svg" xmlns:xlink="http://www.w3.org/1999/xlink" x="0px" y="0px"
	 width="140px" height="120px" viewBox="0 1000 8000 6000" enable-background="new 0 0 8000 6000" xml:space="preserve">
<g id="background" display="none">
	<rect id="back_1_" display="inline" fill="#3D3B3C" width="140" height="120"/>
	<rect id="back_3_" display="inline" fill="#DDD9D4" width="140" height="120"/>
</g>
<rect id="line" x="4832.5" y="2500" display="none" fill="#2D8841" width="10" height="1000"/>
<g id="orbit">
	<g id="slanted">
		<g id="right">
			<path fill="#2E8842" d="M2631.798,2537.405c22.003-44.39,45.707-88.495,71.121-132.187
				c438.731-754.27,1220.656-1099.435,1746.475-770.945c525.822,328.489,596.421,1206.238,157.689,1960.507
				c-438.732,754.271-1220.657,1099.435-1746.478,770.945c-281.276-175.718-432.28-508.607-444.746-895.689l-6.173-176.06
				c-34.095,464.487,118.313,877.406,444.513,1080.916c530.062,330.694,1318.292-16.786,1760.563-776.119
				c442.271-759.332,371.102-1642.972-158.961-1973.666c-530.06-330.695-1318.29,16.787-1760.56,776.119
				c-55.295,94.936-102.558,191.815-141.903,289.313L2631.798,2537.405z"/>
		</g>
		<g id="left_2" display="none">
			<path display="inline" fill="#2E8842" d="M4614.76,2401.227c-442.27-759.333-1230.5-1106.814-1760.56-776.119
				c-405.791,253.164-542.637,830.395-386.065,1427.828c-3.68-17.065-5.635-34.771-5.635-52.936c0-2.861,0.066-5.706,0.161-8.544
				c-130.68-571.369,9.241-1114.352,397.945-1357.182c525.819-328.49,1307.744,16.675,1746.475,770.945
				c438.732,754.27,368.135,1632.019-157.686,1960.508s-1307.746-16.675-1746.478-770.945
				c-87.909-151.133-155.348-307.222-202.794-462.858c-10.562-16.966-19.145-35.288-25.431-54.648
				c48.156,174.995,121.454,351.366,220.547,521.498c442.271,759.333,1230.501,1106.813,1760.563,776.119
				C4985.863,4044.199,5057.03,3160.559,4614.76,2401.227z"/>
		</g>
		<g id="left_2_" display="none">
			<path display="inline" fill="#2E8842" d="M2415.146,2561.978c4.983-400.693,156.459-747.16,445.461-927.704
				c525.819-328.49,1307.744,16.675,1746.475,770.945c438.732,754.27,368.135,1632.019-157.686,1960.508
				s-1307.746-16.675-1746.478-770.945c-36.18-62.2-68.893-125.24-98.171-188.743L2530.347,3250
				c43.471,117.534,98.369,234.559,164.893,348.773c442.271,759.333,1230.501,1106.813,1760.563,776.119
				c530.062-330.693,601.229-1214.334,158.958-1973.666c-442.27-759.333-1230.5-1106.814-1760.56-776.119
				c-336.46,209.91-488.025,642.61-440.745,1124.892L2415.146,2561.978z"/>
		</g>
	</g>
	<g id="round" display="none">
		<circle display="inline" fill="#2D8842" cx="3662.5" cy="3000" r="1200"/>
		<path fill="#2D8842" d="M2712.5,850c-1187.412,0-2150,962.588-2150,2150s962.588,2150,2150,2150s2150-962.587,2150-2150
			S3899.912,850,2712.5,850z M2712.5,5100c-1159.798,0-2100-940.201-2100-2100s940.202-2100,2100-2100s2100,940.202,2100,2100
			S3872.298,5100,2712.5,5100z"/>
		<path display="inline" fill="#2D8842" d="M2712.5,850c-1187.412,0-2150,962.588-2150,2150s962.588,2150,2150,2150
			s2150-962.587,2150-2150S3899.912,850,2712.5,850z M2712.5,5125c-1173.605,0-2125-951.395-2125-2125s951.395-2125,2125-2125
			s2125,951.395,2125,2125S3886.105,5125,2712.5,5125z"/>
	</g>
</g>
<g id="systems_1_">
	<g id="letters" display="none">
		<path id="S_3_" display="inline" fill="#2D8841" d="M7300,2975c-48.326,0-87.5-39.176-87.5-87.5c0-48.325,39.174-87.5,87.5-87.5
			h137.5l-50-50H7300c-75.939,0-137.5,61.561-137.5,137.5c0,75.938,61.561,137.5,137.5,137.5l0,0c48.326,0,87.5,39.175,87.5,87.5
			c0,48.324-39.174,87.5-87.5,87.5h-137.5l50,50h87.5c75.939,0,137.5-61.561,137.5-137.5S7375.939,2975,7300,2975"/>
		<path id="M_1_" display="inline" fill="#2D8841" d="M6975,2750c-46.507,0-87.616,23.093-112.5,58.434
			c-24.884-35.341-65.992-58.434-112.5-58.434c-75.939,0-137.5,61.561-137.5,137.5V3200l50,50v-362.5
			c0-48.325,39.174-87.5,87.5-87.5c48.325,0,87.5,39.175,87.5,87.5V3200l50,50v-362.5c0-48.325,39.174-87.5,87.5-87.5
			c48.325,0,87.5,39.175,87.5,87.5V3200l50,50v-362.5C7112.5,2811.561,7050.939,2750,6975,2750z"/>
		<path id="E_2_" display="inline" fill="#2D8841" d="M6425,3200c-48.326,0-87.5-39.175-87.5-87.5V3025h175l-50-50h-125v-87.5
			c0-48.324,39.174-87.5,87.5-87.5h137.5l-50-50H6425c-75.939,0-137.5,61.561-137.5,137.5v225c0,75.939,61.561,137.5,137.5,137.5
			h137.5l-50-50H6425z"/>
		<polygon id="T_3_" display="inline" fill="#2D8841" points="6187.5,2750 5962.5,2750 6012.5,2800 6075,2800 6075,3200 6125,3250 
			6125,2800 6237.5,2800 		"/>
		<path id="S_4_" display="inline" fill="#2D8841" d="M5775,2975c-48.326,0-87.5-39.176-87.5-87.5c0-48.325,39.174-87.5,87.5-87.5
			h137.5l-50-50H5775c-75.939,0-137.5,61.561-137.5,137.5c0,75.938,61.561,137.5,137.5,137.5l0,0c48.326,0,87.5,39.175,87.5,87.5
			c0,48.324-39.174,87.5-87.5,87.5h-137.5l50,50h87.5c75.939,0,137.5-61.561,137.5-137.5S5850.939,2975,5775,2975"/>
		<path id="Y_1_" display="inline" fill="#2D8841" d="M5537.5,2750v137.5c0,48.325-39.176,87.5-87.5,87.5s-87.5-39.175-87.5-87.5
			V2800l-50-50v137.5c0,67.401,48.498,123.469,112.5,135.226V3200l50,50v-227.274c64.002-11.757,112.5-67.824,112.5-135.226V2800
			L5537.5,2750z"/>
		<path id="S_5_" display="inline" fill="#2D8841" d="M5125,2975c-48.325,0-87.5-39.176-87.5-87.5c0-48.325,39.175-87.5,87.5-87.5
			h137.5l-50-50H5125c-75.939,0-137.5,61.561-137.5,137.5c0,75.938,61.561,137.5,137.5,137.5l0,0c48.326,0,87.5,39.175,87.5,87.5
			c0,48.324-39.174,87.5-87.5,87.5h-137.5l50,50h87.5c75.939,0,137.5-61.561,137.5-137.5S5200.939,2975,5125,2975"/>
	</g>
	<g id="tri" display="none">
		<polygon display="inline" fill="#2D8841" points="7437.5,2750 7412.5,2750 7437.5,2775 		"/>
		<polygon display="inline" fill="#2D8841" points="7162.5,3250 7162.5,3225 7187.5,3250 		"/>
		<polygon display="inline" fill="#2D8841" points="6612.5,3250 6612.5,3225 6637.5,3250 		"/>
		<polygon display="inline" fill="#2D8841" points="6837.5,3250 6837.5,3225 6862.5,3250 		"/>
		<polygon display="inline" fill="#2D8841" points="7062.5,3250 7062.5,3225 7087.5,3250 		"/>
		<polygon display="inline" fill="#2D8841" points="6537.5,3200 6562.5,3200 6562.5,3225 		"/>
		<polygon display="inline" fill="#2D8841" points="6537.5,2750 6562.5,2750 6562.5,2775 		"/>
		<polygon display="inline" fill="#2D8841" points="6487.5,2975 6512.5,2975 6512.5,3000 		"/>
		<polygon display="inline" fill="#2D8841" points="6075,3250 6075,3225 6100,3250 		"/>
		<polygon display="inline" fill="#2D8841" points="6212.5,2750 6237.5,2750 6237.5,2775 		"/>
		<polygon display="inline" fill="#2D8841" points="5962.5,2800 5962.5,2775 5987.5,2800 		"/>
		<polygon display="inline" fill="#2D8841" points="5912.5,2750 5887.5,2750 5912.5,2775 		"/>
		<polygon display="inline" fill="#2D8841" points="5637.5,3250 5637.5,3225 5662.5,3250 		"/>
		<polygon display="inline" fill="#2D8841" points="5425,3250 5425,3225 5450,3250 		"/>
		<polygon display="inline" fill="#2D8841" points="5337.5,2750 5362.5,2750 5362.5,2775 		"/>
		<polygon display="inline" fill="#2D8841" points="5562.5,2750 5587.5,2750 5587.5,2775 		"/>
		<polygon display="inline" fill="#2D8841" points="5262.5,2750 5237.5,2750 5262.5,2775 		"/>
		<polygon display="inline" fill="#2D8841" points="4987.5,3250 4987.5,3225 5012.5,3250 		"/>
	</g>
	<g id="SYSTEMS">
		<path id="S_8_" fill="#2D8841" d="M7300,2975c-48.326,0-87.5-39.176-87.5-87.5c0-48.325,39.174-87.5,87.5-87.5h137.5v-50H7300
			c-75.939,0-137.5,61.561-137.5,137.5c0,75.938,61.561,137.5,137.5,137.5l0,0c48.326,0,87.5,39.175,87.5,87.5
			c0,48.324-39.174,87.5-87.5,87.5h-137.5v50H7300c75.939,0,137.5-61.561,137.5-137.5S7375.939,2975,7300,2975"/>
		<path id="M_2_" fill="#2D8841" d="M6975,2750c-46.507,0-87.616,23.093-112.5,58.434c-24.884-35.341-65.992-58.434-112.5-58.434
			c-75.939,0-137.5,61.561-137.5,137.5V3250h50v-362.5c0-48.325,39.174-87.5,87.5-87.5c48.325,0,87.5,39.175,87.5,87.5V3250h50
			v-362.5c0-48.325,39.174-87.5,87.5-87.5c48.325,0,87.5,39.175,87.5,87.5V3250h50v-362.5C7112.5,2811.561,7050.939,2750,6975,2750z
			"/>
		<path id="E_5_" fill="#2D8841" d="M6425,3200c-48.326,0-87.5-39.175-87.5-87.5V3025h175v-50h-175v-87.5
			c0-48.324,39.174-87.5,87.5-87.5h137.5v-50H6425c-75.939,0-137.5,61.561-137.5,137.5v225c0,75.939,61.561,137.5,137.5,137.5h137.5
			v-50H6425z"/>
		<polygon id="T_8_" fill="#2D8841" points="6237.5,2750 5962.5,2750 5962.5,2800 6075,2800 6075,3250 6125,3250 6125,2800 
			6237.5,2800 		"/>
		<path id="S_7_" fill="#2D8841" d="M5775,2975c-48.326,0-87.5-39.176-87.5-87.5c0-48.325,39.174-87.5,87.5-87.5h137.5v-50H5775
			c-75.939,0-137.5,61.561-137.5,137.5c0,75.938,61.561,137.5,137.5,137.5l0,0c48.326,0,87.5,39.175,87.5,87.5
			c0,48.324-39.174,87.5-87.5,87.5h-137.5v50H5775c75.939,0,137.5-61.561,137.5-137.5S5850.939,2975,5775,2975"/>
		<path id="Y_2_" fill="#2D8841" d="M5537.5,2750v137.5c0,48.325-39.176,87.5-87.5,87.5s-87.5-39.175-87.5-87.5V2750h-50v137.5
			c0,67.401,48.498,123.469,112.5,135.226V3250h50v-227.274c64.002-11.757,112.5-67.824,112.5-135.226V2750H5537.5z"/>
		<path id="S_6_" fill="#2D8841" d="M5125,2975c-48.325,0-87.5-39.176-87.5-87.5c0-48.325,39.175-87.5,87.5-87.5h137.5v-50H5125
			c-75.939,0-137.5,61.561-137.5,137.5c0,75.938,61.561,137.5,137.5,137.5l0,0c48.326,0,87.5,39.175,87.5,87.5
			c0,48.324-39.174,87.5-87.5,87.5h-137.5v50H5125c75.939,0,137.5-61.561,137.5-137.5S5200.939,2975,5125,2975"/>
	</g>
</g>
<g id="orbital_1_">
	<g id="letters_1_">
		<path id="L_1_" fill="#2D8841" d="M4550,3200c-48.325,0-87.5-39.175-87.5-87.5V2800l-50-50v362.5
			c0,75.939,61.561,137.5,137.5,137.5h137.5l-50-50H4550z"/>
		<path id="A_1_" fill="#2D8841" d="M4225,2750c-75.939,0-137.5,61.561-137.5,137.5V3200l50,50v-225h175v175l50,50v-362.5
			C4362.5,2811.561,4300.939,2750,4225,2750z M4312.5,2975h-175v-87.5c0-48.324,39.176-87.5,87.5-87.5s87.5,39.176,87.5,87.5V2975z"
			/>
		<polygon id="T_5_" fill="#2D8841" points="3987.5,2750 3762.5,2750 3812.5,2800 3875,2800 3875,3200 3925,3250 3925,2800 
			4037.5,2800 		"/>
		<polygon id="I_3_" fill="#2D8841" points="3712.5,3250 3662.5,3200 3662.5,2750 3712.5,2800 		"/>
		<path id="B_1_" fill="#2D8841" d="M3554.066,3000c35.341-24.884,58.434-65.993,58.434-112.5c0-75.939-61.561-137.5-137.5-137.5
			s-137.5,61.561-137.5,137.5v225V3250H3475c75.939,0,137.5-61.561,137.5-137.5C3612.5,3065.992,3589.407,3024.884,3554.066,3000z
			 M3387.5,2887.5c0-48.324,39.175-87.5,87.5-87.5s87.5,39.176,87.5,87.5s-39.175,87.5-87.5,87.5h-87.5V2887.5z M3475,3200h-87.5
			v-87.5V3025h87.5c48.325,0,87.5,39.175,87.5,87.5S3523.325,3200,3475,3200z"/>
		<path id="R_3_" fill="#2D8841" d="M3229.066,3000c35.341-24.884,58.434-65.993,58.434-112.5c0-75.939-61.561-137.5-137.5-137.5
			s-137.5,61.561-137.5,137.5v225v87.5l50,50v-137.5V3025h87.5c48.325,0,87.5,39.175,87.5,87.5v87.5l50,50v-137.5
			C3287.5,3065.992,3264.407,3024.884,3229.066,3000z M3150,2975h-87.5v-87.5c0-48.324,39.175-87.5,87.5-87.5s87.5,39.176,87.5,87.5
			S3198.325,2975,3150,2975z"/>
		<path id="O_3_" display="none" fill="#2D8841" d="M2962.5,3000c0,138.068-111.929,250-250,250s-250-111.932-250-250
			c0-138.072,111.929-250,250-250S2962.5,2861.928,2962.5,3000z"/>
		<path id="O_1_" fill="#2D8841" d="M2712.5,2750c-138.071,0-250,111.928-250,250c0,138.068,111.929,250,250,250
			s250-111.932,250-250C2962.5,2861.928,2850.571,2750,2712.5,2750z M2712.5,3240c-132.549,0-240-107.454-240-240
			c0-132.549,107.451-240,240-240s240,107.451,240,240C2952.5,3132.546,2845.049,3240,2712.5,3240z"/>
		<circle id="O" fill="#2D8841" cx="2712.5" cy="3000" r="200"/>
	</g>
	<g id="tri_1_" display="none">
		<polygon display="inline" fill="#2D8841" points="4437.5,2750 4462.5,2750 4462.5,2775 		"/>
		<polygon display="inline" fill="#2D8841" points="4662.5,3200 4687.5,3200 4687.5,3225 		"/>
		<polygon display="inline" fill="#2D8841" points="4087.5,3250 4087.5,3225 4112.5,3250 		"/>
		<polygon display="inline" fill="#2D8841" points="4312.5,3250 4312.5,3225 4337.5,3250 		"/>
		<polygon display="inline" fill="#2D8841" points="3875,3250 3875,3225 3900,3250 		"/>
		<polygon display="inline" fill="#2D8841" points="4012.5,2750 4037.5,2750 4037.5,2775 		"/>
		<polygon display="inline" fill="#2D8841" points="3762.5,2800 3762.5,2775 3787.5,2800 		"/>
		<polygon display="inline" fill="#2D8841" points="3687.5,2750 3712.5,2750 3712.5,2775 		"/>
		<polygon display="inline" fill="#2D8841" points="3662.5,3250 3662.5,3225 3687.5,3250 		"/>
		<polygon display="inline" fill="#2D8841" points="3237.5,3250 3237.5,3225 3262.5,3250 		"/>
		<polygon display="inline" fill="#2D8841" points="3012.5,3250 3012.5,3225 3037.5,3250 		"/>
	</g>
	<g id="ORBITAL">
		<path id="L_2_" fill="#2D8841" d="M4550,3200c-48.325,0-87.5-39.175-87.5-87.5V2750h-50v362.5c0,75.939,61.561,137.5,137.5,137.5
			h137.5v-50H4550z"/>
		<path id="A_2_" fill="#2D8841" d="M4225,2750c-75.939,0-137.5,61.561-137.5,137.5V3250h50v-225h175v225h50v-362.5
			C4362.5,2811.561,4300.939,2750,4225,2750z M4312.5,2975h-175v-87.5c0-48.324,39.176-87.5,87.5-87.5s87.5,39.176,87.5,87.5V2975z"
			/>
		<polygon id="T_7_" fill="#2D8841" points="4037.5,2750 3762.5,2750 3762.5,2800 3875,2800 3875,3250 3925,3250 3925,2800 
			4037.5,2800 		"/>
		<rect id="I_5_" x="3662.5" y="2750" fill="#2D8841" width="50" height="500"/>
		<path id="B_2_" fill="#2D8841" d="M3554.066,3000c35.341-24.884,58.434-65.993,58.434-112.5c0-75.939-61.561-137.5-137.5-137.5
			s-137.5,61.561-137.5,137.5v225V3250H3475c75.939,0,137.5-61.561,137.5-137.5C3612.5,3065.992,3589.407,3024.884,3554.066,3000z
			 M3387.5,2887.5c0-48.324,39.175-87.5,87.5-87.5s87.5,39.176,87.5,87.5s-39.175,87.5-87.5,87.5h-87.5V2887.5z M3475,3200h-87.5
			v-87.5V3025h87.5c48.325,0,87.5,39.175,87.5,87.5S3523.325,3200,3475,3200z"/>
		<path id="R_5_" fill="#2D8841" d="M3229.066,3000c35.341-24.884,58.434-65.993,58.434-112.5c0-75.939-61.561-137.5-137.5-137.5
			s-137.5,61.561-137.5,137.5v225V3250h50v-137.5V3025h87.5c48.325,0,87.5,39.175,87.5,87.5V3250h50v-137.5
			C3287.5,3065.992,3264.407,3024.884,3229.066,3000z M3150,2975h-87.5v-87.5c0-48.324,39.175-87.5,87.5-87.5s87.5,39.176,87.5,87.5
			S3198.325,2975,3150,2975z"/>
		<path id="O_4_" display="none" fill="#2D8841" d="M2712.5,2750c-138.071,0-250,111.928-250,250c0,138.068,111.929,250,250,250
			s250-111.932,250-250C2962.5,2861.928,2850.571,2750,2712.5,2750z M2712.5,3200c-110.457,0-200-89.545-200-200
			c0-110.457,89.543-200,200-200s200,89.543,200,200C2912.5,3110.455,2822.957,3200,2712.5,3200z"/>
	</g>
</g>
<g id="inter_1_">
	<g id="letters_2_" display="none">
		<path id="R_2_" display="inline" fill="#2D8841" d="M2354.066,3000c35.341-24.884,58.434-65.993,58.434-112.5
			c0-75.939-61.561-137.5-137.5-137.5s-137.5,61.561-137.5,137.5v225v87.5l50,50v-137.5V3025h87.5c48.325,0,87.5,39.175,87.5,87.5
			v87.5l50,50v-137.5C2412.5,3065.992,2389.407,3024.884,2354.066,3000z M2275,2975h-87.5v-87.5c0-48.324,39.175-87.5,87.5-87.5
			s87.5,39.176,87.5,87.5S2323.325,2975,2275,2975z"/>
		<path id="E_3_" display="inline" fill="#2D8841" d="M1950,3200c-48.325,0-87.5-39.175-87.5-87.5V3025h175l-50-50h-125v-87.5
			c0-48.324,39.175-87.5,87.5-87.5h137.5l-50-50H1950c-75.939,0-137.5,61.561-137.5,137.5v225c0,75.939,61.561,137.5,137.5,137.5
			h137.5l-50-50H1950z"/>
		<polygon id="T_4_" display="inline" fill="#2D8841" points="1712.5,2750 1487.5,2750 1537.5,2800 1600,2800 1600,3200 1650,3250 
			1650,2800 1762.5,2800 		"/>
		<path id="N_1_" display="inline" fill="#2D8841" d="M1300,2750c-75.939,0-137.5,61.561-137.5,137.5V3200l50,50v-362.5
			c0-48.324,39.176-87.5,87.5-87.5s87.5,39.176,87.5,87.5V3200l50,50v-362.5C1437.5,2811.561,1375.939,2750,1300,2750z"/>
		<polygon id="I_2_" display="inline" fill="#2D8841" points="1112.5,3250 1062.5,3200 1062.5,2750 1112.5,2800 		"/>
	</g>
	<g id="tri_2_" display="none">
		<polygon display="inline" fill="#2D8841" points="1062.5,3250 1062.5,3225 1087.5,3250 		"/>
		<polygon display="inline" fill="#2D8841" points="2362.5,3250 2362.5,3225 2387.5,3250 		"/>
		<polygon display="inline" fill="#2D8841" points="2137.5,3250 2137.5,3225 2162.5,3250 		"/>
		<polygon display="inline" fill="#2D8841" points="2062.5,2750 2087.5,2750 2087.5,2775 		"/>
		<polygon display="inline" fill="#2D8841" points="2012.5,2975 2037.5,2975 2037.5,3000 		"/>
		<polygon display="inline" fill="#2D8841" points="2062.5,3200 2087.5,3200 2087.5,3225 		"/>
		<polygon display="inline" fill="#2D8841" points="1737.5,2750 1762.5,2750 1762.5,2775 		"/>
		<polygon display="inline" fill="#2D8841" points="1600,3250 1600,3225 1625,3250 		"/>
		<polygon display="inline" fill="#2D8841" points="1487.5,2800 1487.5,2775 1512.5,2800 		"/>
		<polygon display="inline" fill="#2D8841" points="1162.5,3250 1162.5,3225 1187.5,3250 		"/>
		<polygon display="inline" fill="#2D8841" points="1387.5,3250 1387.5,3225 1412.5,3250 		"/>
		<polygon display="inline" fill="#2D8841" points="1087.5,2750 1112.5,2750 1112.5,2775 		"/>
	</g>
	<g id="INTER">
		<path id="R_4_" fill="#2D8841" d="M2354.066,3000c35.341-24.884,58.434-65.993,58.434-112.5c0-75.939-61.561-137.5-137.5-137.5
			s-137.5,61.561-137.5,137.5v225V3250h50v-137.5V3025h87.5c48.325,0,87.5,39.175,87.5,87.5V3250h50v-137.5
			C2412.5,3065.992,2389.407,3024.884,2354.066,3000z M2275,2975h-87.5v-87.5c0-48.324,39.175-87.5,87.5-87.5s87.5,39.176,87.5,87.5
			S2323.325,2975,2275,2975z"/>
		<path id="E_4_" fill="#2D8841" d="M1950,3200c-48.325,0-87.5-39.175-87.5-87.5V3025h175v-50h-175v-87.5
			c0-48.324,39.175-87.5,87.5-87.5h137.5v-50H1950c-75.939,0-137.5,61.561-137.5,137.5v225c0,75.939,61.561,137.5,137.5,137.5h137.5
			v-50H1950z"/>
		<polygon id="T_6_" fill="#2D8841" points="1762.5,2750 1487.5,2750 1487.5,2800 1600,2800 1600,3250 1650,3250 1650,2800 
			1762.5,2800 		"/>
		<path id="N_2_" fill="#2D8841" d="M1300,2750c-75.939,0-137.5,61.561-137.5,137.5V3250h50v-362.5c0-48.324,39.176-87.5,87.5-87.5
			s87.5,39.176,87.5,87.5V3250h50v-362.5C1437.5,2811.561,1375.939,2750,1300,2750z"/>
		<rect id="I_4_" x="1062.5" y="2750" fill="#2D8841" width="50" height="500"/>
	</g>
</g>
</svg>
